<?xml version="1.0" standalone="no"?><svg xmlns="http://www.w3.org/2000/svg" viewBox="0 0 1440 320"><path fill="#6FAC2D" fill-opacity="0.5" d="M0,128L40,154.7C80,181,160,235,240,261.3C320,288,400,288,480,277.3C560,267,640,245,720,202.7C800,160,880,96,960,90.7C1040,85,1120,139,1200,149.3C1280,160,1360,128,1400,112L1440,96L1440,320L1400,320C1360,320,1280,320,1200,320C1120,320,1040,320,960,320C880,320,800,320,720,320C640,320,560,320,480,320C400,320,320,320,240,320C160,320,80,320,40,320L0,320Z"></path></svg>