<?xml version="1.0" standalone="no"?><svg xmlns="http://www.w3.org/2000/svg" viewBox="0 0 1440 320"><path fill="#6FAC2D" fill-opacity="1" d="M0,128L34.3,144C68.6,160,137,192,206,213.3C274.3,235,343,245,411,234.7C480,224,549,192,617,186.7C685.7,181,754,203,823,181.3C891.4,160,960,96,1029,90.7C1097.1,85,1166,139,1234,133.3C1302.9,128,1371,64,1406,32L1440,0L1440,320L1405.7,320C1371.4,320,1303,320,1234,320C1165.7,320,1097,320,1029,320C960,320,891,320,823,320C754.3,320,686,320,617,320C548.6,320,480,320,411,320C342.9,320,274,320,206,320C137.1,320,69,320,34,320L0,320Z"></path></svg>